<svg version="1.1" id="Layer_1" xmlns="http://www.w3.org/2000/svg" xmlns:xlink="http://www.w3.org/1999/xlink" x="0px" y="0px"
	 width="100%" viewBox="0 0 1024 323" enable-background="new 0 0 1024 323" xml:space="preserve">
<path fill="#FEFEFE" opacity="1.000000" stroke="none" 
	d="
M686.000000,324.000000 
	C458.833374,324.000000 232.166748,323.989197 5.500165,324.093445 
	C1.751218,324.095184 0.901081,323.250061 0.905300,319.500031 
	C1.023256,214.666840 1.021459,109.833473 0.904578,5.000286 
	C0.900761,1.576635 1.576048,0.904989 4.999847,0.906007 
	C343.666412,1.006690 682.333008,1.006682 1020.999634,0.906081 
	C1024.422241,0.905064 1025.099365,1.574952 1025.095459,4.999742 
	C1024.978516,109.999596 1024.978516,214.999619 1025.095337,319.999481 
	C1025.099121,323.422577 1024.425171,324.098938 1021.000305,324.095367 
	C909.500305,323.979797 798.000122,324.000000 686.000000,324.000000 
z"/>
<path fill="#0D203D" opacity="1.000000" stroke="none" 
	d="
M263.318085,148.597412 
	C267.437897,148.598694 271.116028,148.795135 274.764465,148.549988 
	C278.876495,148.273682 281.981598,148.434570 281.146851,154.053635 
	C280.705231,157.026184 283.019592,156.744125 284.808929,155.817490 
	C295.442657,150.310623 305.512329,150.913010 314.817047,158.641907 
	C316.743378,160.241989 317.815948,158.874954 319.205292,158.207245 
	C326.054443,154.915512 332.882507,152.201065 340.848297,152.340302 
	C353.568115,152.562622 362.669464,163.412796 364.461243,174.034027 
	C365.686401,181.296646 366.009399,188.594254 365.762024,195.923019 
	C365.528137,202.851242 367.469208,209.000778 371.807220,214.407150 
	C372.962860,215.847473 374.300446,217.431808 373.301666,219.342377 
	C372.344360,221.173630 370.296875,220.395645 368.742188,220.414825 
	C361.080109,220.509354 353.415619,220.511566 345.753662,220.414520 
	C344.417664,220.397598 342.533234,221.265854 341.818207,219.313782 
	C341.197174,217.618286 341.964661,216.068817 342.994720,214.668976 
	C353.024445,201.038513 349.618958,185.858475 347.517303,171.055191 
	C346.786957,165.910995 342.384125,162.340134 337.493622,160.114365 
	C332.584076,157.879944 325.036560,159.618164 321.499878,163.545242 
	C320.262726,164.918961 320.379486,166.398865 320.894226,167.731735 
	C324.765839,177.757202 324.511810,188.256577 324.577881,198.712463 
	C324.613800,204.397354 326.494904,209.337814 330.026886,213.714981 
	C331.320953,215.318726 332.549683,217.171066 331.831177,219.177536 
	C331.002991,221.490402 328.648621,220.364258 326.994904,220.392075 
	C319.500519,220.518097 312.001801,220.530167 304.507629,220.404388 
	C303.044159,220.379837 300.957001,221.283768 300.174957,219.088074 
	C299.539276,217.303284 300.731445,215.968201 301.682983,214.571777 
	C311.153076,200.674088 309.054108,185.525528 305.704224,170.578003 
	C304.418823,164.842300 299.664703,160.841873 293.821167,158.875443 
	C287.393127,156.712326 281.274323,160.559113 281.115845,167.271729 
	C280.868256,177.757736 280.939606,188.258774 281.187775,198.746063 
	C281.326691,204.615356 283.447784,209.971985 287.041321,214.672791 
	C288.083618,216.036301 289.125214,217.483322 288.383240,219.217361 
	C287.623199,220.993546 285.781372,220.388290 284.383209,220.402847 
	C276.387726,220.486191 268.390991,220.447510 260.395020,220.496872 
	C256.178101,220.522919 255.573700,218.491379 257.982971,215.637177 
	C264.256989,208.204483 264.998383,199.404129 264.753113,190.307739 
	C264.551575,182.832779 265.083649,175.362579 264.327606,167.870514 
	C263.871277,163.348465 262.525330,159.492233 259.565674,156.142700 
	C257.985657,154.354553 256.199341,152.315216 257.088287,149.955521 
	C258.086609,147.305664 260.906677,149.071213 263.318085,148.597412 
z"/>
<path fill="#0F223E" opacity="1.000000" stroke="none" 
	d="
M560.971191,124.162277 
	C560.027588,122.573189 559.046814,121.365860 558.629456,119.987877 
	C558.000732,117.911880 558.539185,116.475693 561.231812,116.517662 
	C567.395447,116.613716 573.562195,116.572762 579.726868,116.510742 
	C582.271301,116.485146 583.130310,117.545609 583.124634,120.121124 
	C583.053650,152.285385 583.051270,184.449921 583.119690,216.614182 
	C583.126770,219.942459 581.879761,220.800583 578.875671,219.784134 
	C570.275024,216.874161 561.599854,217.987335 553.376892,220.662201 
	C541.578186,224.500153 530.589600,222.046829 520.965149,215.963806 
	C508.459106,208.059525 500.569061,196.491669 502.374451,180.640121 
	C503.461578,171.094742 507.816223,163.060150 515.602539,157.201736 
	C530.654114,145.876938 546.491638,143.995941 563.150391,153.601715 
	C564.564575,154.417175 566.261719,155.381165 566.241516,152.794418 
	C566.165894,143.088364 567.926147,132.998871 560.971191,124.162277 
z"/>
<path fill="#0D213D" opacity="1.000000" stroke="none" 
	d="
M491.496857,211.150543 
	C492.828888,214.096817 496.707458,216.245636 494.855347,219.268677 
	C493.126282,222.090942 489.326691,220.285583 486.490601,220.396301 
	C480.005341,220.649506 473.499878,220.331741 467.006958,220.462067 
	C463.226105,220.537964 462.046967,218.289017 463.982422,215.879639 
	C473.404816,204.150101 471.357422,190.534485 470.685028,177.240555 
	C470.258881,168.814667 465.669769,162.727432 457.797058,159.284088 
	C451.630219,156.586838 444.803741,159.890137 444.541016,166.554398 
	C444.076172,178.345322 443.651703,190.182480 444.964233,201.972672 
	C445.476044,206.570190 447.393372,210.486618 450.368500,214.024368 
	C451.492279,215.360718 452.732452,217.168610 451.910706,219.043976 
	C450.972717,221.184647 448.726624,220.437744 447.000793,220.454453 
	C439.506470,220.527008 432.010529,220.522537 424.515961,220.458008 
	C419.412781,220.414062 418.308044,218.860199 421.330109,215.055496 
	C427.095581,207.796814 428.251526,199.532852 428.051270,190.737106 
	C427.929993,185.409775 427.898560,180.074493 428.041046,174.748520 
	C428.224213,167.901062 426.762390,161.612091 422.494263,156.120483 
	C421.003662,154.202606 419.800110,151.807022 420.709015,149.662201 
	C421.615234,147.523743 424.271759,148.732300 426.141998,148.642960 
	C429.465454,148.484192 432.813904,148.437607 436.130463,148.661423 
	C439.438232,148.884598 440.172607,147.380814 439.731842,144.478790 
	C438.766388,138.121902 435.021515,133.416290 429.913879,130.252151 
	C422.467194,125.639000 414.069916,123.839508 405.233215,124.229599 
	C402.830414,124.335663 401.879730,124.701256 402.857971,127.409920 
	C404.925049,133.133606 401.945038,139.262329 396.586731,140.891205 
	C391.271576,142.506927 384.804504,139.341934 383.183441,134.331589 
	C381.412964,128.859436 384.886932,121.656212 391.196838,120.992821 
	C407.718994,119.255775 424.204529,119.278801 437.366150,132.082123 
	C442.979248,137.542435 444.660950,144.479431 444.269440,152.045197 
	C444.054321,156.201447 444.945526,156.766403 449.047974,154.909515 
	C463.967041,148.156693 481.293823,154.129471 485.373688,171.242691 
	C486.862946,177.489426 487.294128,183.689133 487.262939,189.969009 
	C487.226837,197.232605 488.474884,204.169281 491.496857,211.150543 
z"/>
<path fill="#0C1F3C" opacity="1.000000" stroke="none" 
	d="
M795.909973,208.672333 
	C797.196289,211.034805 797.868103,213.267853 799.836304,214.800354 
	C801.317749,215.953812 801.367920,217.805710 800.779297,219.386490 
	C800.175598,221.007812 798.495911,220.364090 797.245728,220.371552 
	C789.251160,220.419205 781.256226,220.424881 773.261414,220.414322 
	C771.978943,220.412628 770.460449,220.830490 769.689636,219.326523 
	C768.886536,217.759521 769.695068,216.328506 770.598938,215.168625 
	C776.106323,208.101059 777.271423,199.884384 777.270447,191.272614 
	C777.269714,184.456314 777.721008,177.656509 776.768677,170.839981 
	C775.958191,165.038925 774.979797,159.449188 770.860474,154.885208 
	C769.655701,153.550339 768.633789,151.729187 769.393250,149.878220 
	C770.208679,147.890747 772.271973,148.650131 773.832336,148.626816 
	C778.828735,148.552124 783.836060,148.791504 788.821411,148.547455 
	C792.054321,148.389236 793.434692,149.279846 793.023254,152.694977 
	C792.521606,156.858337 794.209839,157.104706 797.652771,155.392090 
	C812.578979,147.967316 831.942688,154.250656 835.231018,173.863358 
	C836.348755,180.530243 836.309265,187.102036 836.412354,193.730743 
	C836.536011,201.676086 838.017517,209.070724 843.536011,215.212234 
	C844.382935,216.154663 845.104980,217.361740 844.605835,218.846115 
	C844.035522,220.541977 842.628601,220.391769 841.312073,220.396866 
	C832.817200,220.429749 824.322388,220.441086 815.827515,220.463135 
	C812.376892,220.472092 811.300903,218.472458 813.321533,216.068192 
	C823.265381,204.236618 820.172241,190.224960 819.901917,176.843933 
	C819.729675,168.316086 814.571472,162.418777 806.629089,159.219955 
	C800.352966,156.692200 793.167725,161.059494 793.034180,167.854813 
	C792.828125,178.336395 792.955933,188.834030 793.324219,199.311432 
	C793.431152,202.353821 794.842102,205.350372 795.909973,208.672333 
z"/>
<path fill="#0E213D" opacity="1.000000" stroke="none" 
	d="
M698.019897,215.932709 
	C682.698730,206.294662 678.108398,189.944305 682.888306,173.966934 
	C686.591309,161.589432 694.834778,154.390717 707.144043,150.387894 
	C724.831787,144.636032 743.838623,151.003754 752.971741,163.792862 
	C765.656555,181.555511 761.046631,211.552261 733.187439,220.205276 
	C720.853760,224.036102 709.405579,222.124619 698.019897,215.932709 
z"/>
<path fill="#0F223E" opacity="1.000000" stroke="none" 
	d="
M938.333191,211.026276 
	C937.776978,210.145325 937.326660,209.540054 936.640015,208.768433 
	C935.397156,208.631561 935.011597,207.812088 934.525024,206.882477 
	C934.007935,205.643921 933.444519,204.717026 932.751099,203.488098 
	C932.320068,202.208786 931.434021,201.565063 931.100830,200.285324 
	C931.028503,199.567947 930.993164,199.150192 930.852051,198.435883 
	C930.331177,197.208603 929.447754,196.576843 929.072693,195.289810 
	C928.956421,194.279785 928.887024,193.570618 928.738647,192.513336 
	C927.005432,188.489990 928.214661,184.538025 927.588867,180.332901 
	C927.665833,179.332718 927.766479,178.775925 928.071045,177.847244 
	C928.642273,175.384979 929.143311,173.332657 930.570190,171.205475 
	C931.329590,169.938690 931.881653,169.006943 932.549438,167.769699 
	C932.666626,165.834122 934.108032,164.884781 934.784424,163.233612 
	C936.476562,161.431046 937.939819,159.860397 939.672791,158.105896 
	C940.556641,157.425537 941.150818,156.903793 942.095703,156.444794 
	C955.421692,146.876480 969.607727,145.799881 984.221802,151.645020 
	C1006.519043,160.563141 1009.729309,181.139801 1004.446777,199.715698 
	C1003.744934,202.183762 1000.884583,203.667328 1000.234009,206.746735 
	C998.341980,209.698227 996.445251,212.159500 993.231323,213.776016 
	C991.496277,214.873001 990.035706,215.777206 988.299927,216.854858 
	C987.298340,217.892715 986.161316,217.969986 984.934082,218.515747 
	C982.773315,219.294769 981.077515,220.534805 978.551270,220.332153 
	C976.186340,221.547897 974.050049,222.122726 971.375854,222.087708 
	C969.287354,222.165985 967.569763,222.203995 965.422852,222.226227 
	C962.478333,221.831009 959.807617,222.239731 957.166016,220.570618 
	C954.201050,220.641846 952.085815,219.043488 949.332092,218.421387 
	C947.677368,217.982880 946.403625,217.546097 945.226013,216.251221 
	C944.602600,215.633896 944.226074,215.244553 943.619873,214.710052 
	C942.488159,214.628052 942.032471,213.887573 941.167358,213.281982 
	C940.932190,213.103119 940.595886,212.908783 940.408630,212.857193 
	C939.450012,212.514496 938.970398,211.877502 938.333191,211.026276 
z"/>
<path fill="#13243F" opacity="1.000000" stroke="none" 
	d="
M600.964111,202.074692 
	C592.193420,182.579544 596.433044,165.274063 613.944275,153.994690 
	C623.150452,148.064758 633.939697,145.934204 645.298950,148.013992 
	C655.448730,149.872330 663.547791,154.350571 669.181091,163.132690 
	C669.917480,164.280792 670.995544,165.382355 670.591248,166.632065 
	C670.066772,168.253067 668.321472,167.503265 667.075867,167.671997 
	C666.748474,167.716354 666.407959,167.657242 666.078125,167.690857 
	C659.552429,168.355850 653.976562,167.573975 649.902039,161.171799 
	C647.712036,157.730774 643.663452,155.525391 639.427734,154.140915 
	C624.928528,149.401779 614.744690,160.034729 614.454712,174.553787 
	C614.155273,189.550186 618.937256,202.756973 630.694763,212.485138 
	C641.002441,221.013733 650.146423,220.316055 658.181824,210.142853 
	C659.374939,208.632233 660.102417,206.610840 660.572205,204.708908 
	C661.127869,202.458984 662.435547,201.608597 664.497192,201.819702 
	C666.590088,202.033997 669.540222,200.600143 670.575012,202.546371 
	C671.609802,204.492798 668.928955,206.250397 667.710693,207.892166 
	C659.157837,219.418518 640.196716,225.247955 626.622131,220.693542 
	C615.961853,217.116928 606.916382,212.308731 600.964111,202.074692 
z"/>
<path fill="#0E213D" opacity="1.000000" stroke="none" 
	d="
M871.876221,175.766357 
	C876.601074,187.751404 881.160400,199.380676 885.719727,211.009933 
	C886.137207,210.978729 886.554688,210.947525 886.972168,210.916321 
	C891.476318,199.286209 895.962585,187.649078 900.497131,176.030853 
	C901.642700,173.095657 903.275024,170.310852 904.092285,167.296600 
	C905.247375,163.036591 906.299133,158.862961 904.222107,154.234467 
	C902.135193,149.583786 903.137756,148.660049 908.070557,148.601990 
	C911.236267,148.564728 914.406616,148.508636 917.567078,148.643250 
	C918.886719,148.699478 920.841003,147.779083 921.285583,150.004837 
	C921.623352,151.696136 921.350952,153.598953 919.720703,154.454117 
	C909.037354,160.058228 908.721497,171.673172 904.762024,180.939194 
	C899.778137,192.602646 894.914124,204.385788 891.100891,216.542053 
	C890.253479,219.243591 888.158264,220.487000 884.972351,220.525650 
	C872.219788,220.680389 872.649109,220.636063 868.420776,209.323593 
	C862.434082,193.307007 855.695129,177.572678 849.387451,161.674149 
	C848.138245,158.525558 845.418396,156.819229 843.246948,154.601700 
	C841.727051,153.049438 841.341614,151.319427 841.904968,149.623550 
	C842.518433,147.776962 844.507324,148.643417 845.885193,148.627762 
	C852.716492,148.550125 859.553528,148.738480 866.379578,148.534103 
	C870.042542,148.424454 871.454590,150.465622 869.768860,153.005478 
	C864.334778,161.192825 869.164978,168.128357 871.876221,175.766357 
z"/>
<path fill="#081B39" opacity="1.000000" stroke="none" 
	d="
M402.554871,165.004395 
	C403.048370,178.455765 401.523041,191.464111 403.861023,204.376526 
	C404.527374,208.056702 405.540619,211.454163 407.986725,214.260361 
	C409.308594,215.776794 410.161743,217.444199 409.389679,219.233231 
	C408.549652,221.179657 406.450714,220.345551 404.895599,220.368484 
	C398.398712,220.464340 391.898895,220.364822 385.402008,220.460190 
	C381.354004,220.519592 380.584869,218.617554 382.462982,215.502472 
	C392.729309,198.474487 388.855377,180.291870 386.795898,162.302719 
	C386.426605,159.077133 383.950012,156.456512 382.395050,153.578186 
	C380.839813,150.699310 380.809631,148.434631 385.225861,148.592438 
	C389.885315,148.758896 394.559448,148.725510 399.220032,148.567596 
	C401.826874,148.479294 402.722229,149.373764 402.594421,152.011490 
	C402.393127,156.167068 402.548950,160.339951 402.554871,165.004395 
z"/>
<path fill="#D4826A" opacity="1.000000" stroke="none" 
	d="
M81.982483,76.584457 
	C89.468636,78.579063 95.960320,82.166245 102.658028,86.137627 
	C104.037941,86.566559 104.863129,87.112846 105.214790,88.598694 
	C105.013351,89.149673 104.827072,89.318115 104.290611,89.612045 
	C98.897461,88.941360 94.698265,86.141159 90.264961,83.922279 
	C83.279541,80.426064 77.668671,83.646309 77.309494,91.538666 
	C76.927971,99.922180 81.240807,105.312042 88.818558,108.906860 
	C89.864716,109.854324 90.567604,110.725456 92.123657,110.713394 
	C92.906471,110.734100 93.358017,110.745407 94.159935,110.767227 
	C100.374382,112.522026 105.088486,109.037575 110.139664,107.250061 
	C121.104477,103.369820 122.497185,101.481102 120.407310,89.939568 
	C118.654076,80.257210 113.859291,72.303391 104.214180,68.227852 
	C103.127525,67.768692 102.044823,67.360138 100.865959,67.351219 
	C98.237450,67.331314 95.031799,66.702988 93.982285,69.886742 
	C92.997566,72.873917 96.300865,73.516068 98.001053,74.794716 
	C102.172142,77.931618 107.546539,79.847931 108.490829,86.301949 
	C106.845764,88.030128 106.190376,86.675308 105.292542,85.318497 
	C100.366341,80.494843 94.878120,76.981850 89.014290,74.209229 
	C84.758530,72.196960 85.484940,70.306595 88.076752,67.581612 
	C93.895950,61.463428 102.743080,61.331699 111.666389,67.324829 
	C114.917168,69.508141 117.440125,72.373322 119.299057,75.761246 
	C124.621323,85.461166 126.787621,95.958778 126.825439,106.942917 
	C126.830864,108.516373 127.170143,110.794098 124.243370,109.281090 
	C119.449348,106.802788 115.186111,108.530228 111.134995,111.093346 
	C96.570107,120.308426 78.358810,113.640724 73.316589,97.232178 
	C70.984619,89.643410 74.326912,84.029045 79.761688,78.714508 
	C80.168243,77.456268 80.851593,77.006477 81.982483,76.584457 
z"/>
<path fill="#CB7262" opacity="1.000000" stroke="none" 
	d="
M38.817741,144.337784 
	C44.925777,141.558594 51.061825,142.838913 57.549877,142.934677 
	C59.592381,142.708786 61.114822,142.750427 62.155350,144.661194 
	C57.634602,147.551590 52.694504,145.660568 48.003296,146.386688 
	C45.847271,146.720398 43.510830,146.880432 42.711586,149.374023 
	C41.911079,151.871552 42.187119,154.320312 44.064243,156.365982 
	C45.771297,158.226273 47.677044,159.761841 50.196251,160.455734 
	C56.313572,162.140732 61.713982,161.234406 66.010223,156.226669 
	C67.319557,154.700500 68.958626,153.542511 70.358757,152.124603 
	C73.830200,148.609146 73.962273,146.354660 70.642616,142.688812 
	C66.585068,138.208130 61.737232,134.717392 56.284325,132.135727 
	C52.728645,130.452301 50.008171,132.021942 47.385807,134.623489 
	C50.082588,136.870132 53.007660,136.448486 55.753242,136.799805 
	C58.092869,137.099182 60.586975,137.306564 60.180820,140.982758 
	C59.502293,141.516632 59.014690,141.579071 58.169758,141.298553 
	C53.003117,141.612701 48.426205,139.305435 43.574959,139.858963 
	C41.291069,140.119553 40.788876,138.708801 40.961769,136.716431 
	C41.366997,132.046722 46.046406,127.937477 51.204582,127.451241 
	C59.915203,126.630112 65.997086,131.162247 71.637856,136.929184 
	C74.817444,140.179886 77.030357,144.079895 79.524490,147.793381 
	C80.286308,148.927673 81.585976,150.692841 78.774971,150.975708 
	C74.552177,151.400620 72.679375,154.577667 70.490181,157.506302 
	C66.496803,162.848541 61.399414,165.932129 54.450771,165.942978 
	C47.247807,165.954224 42.847496,161.775375 39.086025,156.508865 
	C36.741421,153.226151 38.449272,149.803894 39.167679,146.028046 
	C38.718079,145.341232 38.554173,144.993896 38.817741,144.337784 
z"/>
<path fill="#F09755" opacity="1.000000" stroke="none" 
	d="
M182.192886,79.488739 
	C181.943344,79.801880 181.579849,80.088661 181.364197,80.172836 
	C179.604568,80.340019 178.443893,81.329910 177.127274,81.952736 
	C172.580795,84.103432 168.920700,83.106827 165.742950,78.489578 
	C168.497055,76.673485 170.444183,74.293007 172.935638,72.014816 
	C175.640442,70.574562 175.104630,67.702003 176.729034,65.589020 
	C181.081116,61.627365 180.159561,56.518372 180.542679,51.905552 
	C180.849670,48.209663 181.068207,44.724369 183.415833,41.589397 
	C185.451218,38.871403 187.656540,38.856022 189.590912,41.120335 
	C193.422684,45.605690 195.849899,50.302204 194.855164,56.921124 
	C193.626205,65.098427 187.922775,70.272728 184.051331,76.684799 
	C183.546646,77.520699 182.920380,78.305740 182.192886,79.488739 
z"/>
<path fill="#DE9D72" opacity="1.000000" stroke="none" 
	d="
M189.896179,286.801025 
	C182.284546,301.217712 167.723175,307.920074 149.461639,305.379395 
	C147.559525,303.509979 148.194489,302.046509 149.725098,300.386169 
	C153.394928,298.416290 156.887375,296.849823 160.194519,294.959198 
	C168.525833,290.196442 173.818298,282.940521 176.655518,273.889282 
	C177.252304,271.985443 178.539337,269.413788 176.213791,268.002533 
	C174.210999,266.787201 173.211548,269.416962 171.750275,270.310364 
	C171.042297,270.743225 170.353531,271.207458 169.324387,271.755981 
	C168.831238,271.671722 168.669785,271.488983 168.399078,270.955872 
	C168.340805,267.767120 170.572052,266.420715 172.612961,264.515106 
	C175.053223,263.053223 177.220123,262.703827 179.762680,264.292145 
	C180.240570,264.730927 180.404816,264.935242 180.735168,265.497040 
	C181.918579,269.277557 180.752701,272.578979 180.307434,276.306213 
	C180.206924,277.192261 180.093369,277.683716 179.788940,278.503296 
	C176.331696,282.795288 173.924942,287.404236 170.427795,291.255249 
	C168.386993,293.502594 166.372787,295.621002 163.715118,297.125854 
	C162.799622,297.644257 161.214493,298.120453 161.841507,299.579102 
	C162.354050,300.771484 163.847610,300.652740 164.982788,300.532013 
	C170.216751,299.975494 175.230606,298.785614 178.760086,294.438293 
	C180.238876,292.616791 182.221237,291.311462 183.752274,289.090118 
	C184.043488,288.572693 184.174896,288.372681 184.552979,287.908264 
	C185.814896,286.922638 186.979065,286.601410 188.548248,286.374939 
	C189.150223,286.429932 189.385925,286.494141 189.896179,286.801025 
z"/>
<path fill="#F19E58" opacity="1.000000" stroke="none" 
	d="
M209.892899,182.609436 
	C209.868027,183.413116 209.884125,183.857376 209.825989,184.627472 
	C207.662354,187.308411 208.232666,190.009674 208.806885,193.064545 
	C208.923019,194.192657 208.873383,194.945572 208.333130,195.984024 
	C207.393875,196.753403 206.621704,196.871155 205.424576,196.671753 
	C199.755508,191.864105 192.807297,193.990036 186.459976,192.038391 
	C185.866409,191.834045 185.639755,191.727539 185.134964,191.373566 
	C185.243423,187.093811 190.165909,188.406799 191.741119,185.227570 
	C191.983307,184.965347 192.000198,185.001389 191.983215,184.990967 
	C193.112198,184.190369 194.623840,183.941132 195.655731,182.349167 
	C199.001877,177.674026 199.691452,172.135269 202.699875,167.712341 
	C204.039749,165.742477 204.946274,162.557281 208.089828,163.553497 
	C211.150009,164.523300 210.094406,167.668945 210.261139,170.042252 
	C210.295807,170.535690 210.191284,171.035767 210.073166,171.903641 
	C209.663910,173.666122 209.224747,175.049133 209.771210,176.851074 
	C210.038864,178.880997 210.008713,180.565140 209.892899,182.609436 
z"/>
<path fill="#E0A374" opacity="1.000000" stroke="none" 
	d="
M182.268066,79.738182 
	C183.119064,74.876930 185.835236,70.839325 189.274719,67.248039 
	C195.211807,61.048931 194.887131,47.248009 188.578857,41.572079 
	C187.056808,40.202591 186.311111,40.013042 184.539200,42.246346 
	C180.063629,47.887318 182.980530,54.506729 181.133072,60.425186 
	C180.419479,62.711258 180.451538,64.983376 177.429474,65.964493 
	C175.968567,64.722816 176.531738,63.618607 177.725723,62.266235 
	C179.132721,54.572449 179.642502,47.131035 179.095062,39.652073 
	C178.810501,35.764458 180.481369,34.603371 184.156769,35.326523 
	C191.530029,36.777245 196.521530,43.313477 196.647720,52.268841 
	C196.810867,63.847301 190.630905,72.257622 182.268066,79.738182 
z"/>
<path fill="#DE9D72" opacity="1.000000" stroke="none" 
	d="
M153.166382,72.898819 
	C141.006042,62.494576 142.608780,46.001789 154.227264,35.704311 
	C158.210327,32.174122 163.352325,32.314617 168.761963,33.876774 
	C170.173416,33.257950 171.240646,32.884346 172.861786,33.557198 
	C173.258530,33.746037 173.258011,33.872593 173.198090,33.892933 
	C173.601974,35.674271 174.152832,37.412674 174.594452,39.533340 
	C176.739960,46.485424 176.035187,53.292404 175.985825,60.515320 
	C175.760529,61.133862 175.592499,61.288292 175.083771,61.480049 
	C172.323837,60.964672 172.693649,58.832733 172.189575,56.819141 
	C171.877350,55.362907 171.863144,54.231754 172.075836,52.765694 
	C172.411163,51.375504 172.690857,50.315769 172.198181,48.897293 
	C171.995392,48.127449 171.905060,47.678825 171.777802,46.880814 
	C170.484818,38.337765 169.094635,37.479305 158.699280,38.844784 
	C149.522797,44.881771 146.821533,55.555595 151.775696,65.260719 
	C152.752457,67.174164 154.082321,68.935593 153.859833,71.614319 
	C153.678864,72.209236 153.568756,72.435066 153.166382,72.898819 
z"/>
<path fill="#E7B183" opacity="1.000000" stroke="none" 
	d="
M209.156616,173.302277 
	C209.032364,171.012756 209.049057,169.018188 209.011520,167.024643 
	C208.990173,165.890289 209.185379,164.495422 207.645004,164.219849 
	C206.305176,163.980164 205.806534,165.106644 205.048996,166.057388 
	C201.085587,171.031723 200.790512,177.843689 196.281631,182.822739 
	C195.431015,183.150558 195.003494,182.997070 194.810974,182.161774 
	C199.994827,172.069458 202.488953,161.335403 206.779953,151.289520 
	C208.623642,146.973114 210.976944,143.103561 214.913696,139.559311 
	C213.756195,150.825928 212.598679,162.092545 211.187561,173.669800 
	C210.257721,174.386856 209.751556,174.056137 209.156616,173.302277 
z"/>
<path fill="#EABC8E" opacity="1.000000" stroke="none" 
	d="
M252.544342,101.758347 
	C249.608994,108.569908 243.689270,110.606064 236.984665,111.033890 
	C232.231201,111.337212 227.372604,110.174187 222.826447,112.744774 
	C221.273285,113.622986 219.607391,113.020103 218.708237,111.135040 
	C214.623352,102.571136 212.269104,83.869789 219.831207,75.374725 
	C223.720718,71.005363 229.493256,68.880371 234.394257,70.742973 
	C237.246109,71.826805 238.332108,73.336830 236.727844,76.543884 
	C235.900696,78.286629 235.309082,79.851402 232.920380,79.146606 
	C230.081146,73.008408 227.496353,72.724976 222.919830,77.460983 
	C219.742050,80.749504 219.314148,84.783485 218.851730,88.926552 
	C218.704544,90.245178 218.375351,91.546463 218.362610,92.880844 
	C218.321106,97.231567 218.406662,101.814705 220.361145,105.570999 
	C223.000580,110.643700 228.215515,106.612404 232.493164,107.663734 
	C238.813477,108.930420 243.284546,105.680565 248.190063,102.555458 
	C249.692520,101.805229 250.865906,101.255394 252.544342,101.758347 
z"/>
<path fill="#E0A374" opacity="1.000000" stroke="none" 
	d="
M182.665833,160.302246 
	C193.486145,161.468048 196.786118,175.123230 189.887939,181.365814 
	C186.154282,184.744629 180.713623,185.992630 175.991348,183.563812 
	C171.555969,181.282578 169.042221,177.419540 169.086273,172.280212 
	C169.130814,167.082458 171.782043,163.480057 176.479584,161.461395 
	C178.286804,160.684784 180.217072,160.035690 182.665833,160.302246 
z"/>
<path fill="#DB9872" opacity="1.000000" stroke="none" 
	d="
M168.684601,270.715942 
	C168.977264,270.947784 168.987244,271.401276 168.989975,271.627869 
	C155.550842,279.075745 138.255051,276.088928 128.986511,264.664978 
	C128.393478,263.023438 127.920891,261.683563 129.584625,260.323273 
	C139.971832,261.558990 149.960007,262.797668 159.783752,257.264648 
	C158.606583,262.895996 153.819839,263.548920 149.312180,264.189636 
	C145.419891,264.742889 141.465042,264.915405 137.188324,265.381714 
	C139.211670,269.991882 143.125824,271.131378 147.004761,271.445435 
	C152.245102,271.869690 157.613739,272.473206 162.704269,270.094116 
	C164.557541,269.227997 166.580048,269.142456 168.684601,270.715942 
z"/>
<path fill="#DB9872" opacity="1.000000" stroke="none" 
	d="
M159.976089,256.969360 
	C173.067032,246.414108 173.610016,233.104935 167.774750,216.721039 
	C166.057159,211.898544 163.330307,207.435501 161.254486,202.211472 
	C165.514160,201.523422 166.604126,204.667603 167.651031,207.599213 
	C168.947021,211.228348 170.394470,214.684525 173.740265,217.492218 
	C174.884705,221.563660 174.339508,225.338211 174.456802,229.515503 
	C174.436142,232.868073 174.478821,235.784195 174.401062,239.127670 
	C174.453934,241.512375 174.477203,243.467987 174.022095,245.794128 
	C173.585037,247.198471 172.830765,247.922684 171.932831,248.988861 
	C170.689957,250.312485 170.159103,251.632584 169.394684,253.245392 
	C166.929642,256.025635 164.755341,258.691437 160.468903,257.398071 
	C160.157822,257.170563 160.036285,257.036774 159.976089,256.969360 
z"/>
<path fill="#E7B183" opacity="1.000000" stroke="none" 
	d="
M252.964981,101.817429 
	C251.821121,102.302376 250.779007,102.623825 249.406677,102.981384 
	C247.195709,100.804268 248.661224,98.886856 249.844299,97.196838 
	C252.330368,93.645554 251.980179,89.963539 250.607925,86.279083 
	C248.728180,81.232101 243.245087,80.320465 239.608292,84.317665 
	C237.961716,86.127434 236.652023,88.408020 233.436310,88.419189 
	C231.461212,83.842606 236.163452,82.625252 237.790070,79.448090 
	C239.214310,78.243614 240.344971,77.274231 241.754562,76.153137 
	C244.119598,74.540520 245.385269,75.782936 246.848236,77.614746 
	C251.328995,79.083214 254.914459,80.900681 255.308838,86.339111 
	C255.470154,87.311676 255.842773,87.813416 256.006256,88.701385 
	C256.046295,90.068695 256.050476,91.137558 256.015717,92.605515 
	C255.502960,93.441978 255.495956,94.059914 255.211716,94.887016 
	C255.024536,95.860390 254.975922,96.570953 254.866806,97.632431 
	C254.059906,98.755173 254.006760,99.874458 253.280457,101.002632 
	C253.131638,101.274307 253.066711,101.653931 252.964981,101.817429 
z"/>
<path fill="#DB9872" opacity="1.000000" stroke="none" 
	d="
M160.935303,202.057098 
	C153.860687,192.172714 146.130737,182.890030 136.313126,175.542542 
	C133.654907,173.553146 130.936417,171.644287 128.289001,169.123474 
	C131.016418,167.300140 133.735428,167.503906 135.551804,169.744644 
	C138.822433,173.779419 143.507950,176.089294 147.326813,179.993378 
	C152.838806,183.747864 156.088562,189.050308 159.884964,193.851120 
	C161.586014,196.002228 162.729294,198.385971 161.386139,201.547211 
	C161.157974,201.849747 161.009827,201.988297 160.935303,202.057098 
z"/>
<path fill="#DE9D72" opacity="1.000000" stroke="none" 
	d="
M165.894775,77.674057 
	C169.898605,82.534065 172.822845,83.035210 177.644928,79.906227 
	C178.692200,79.226677 179.623825,78.745209 180.946472,79.948364 
	C178.421631,84.443954 173.741241,86.089417 169.924118,88.854950 
	C168.896484,89.599480 167.891327,89.288216 167.731125,88.001656 
	C166.823776,80.714348 160.767288,78.564667 155.527145,75.562790 
	C154.680450,75.077751 153.976578,74.343414 153.040390,73.430519 
	C152.874100,73.136726 153.013687,72.990334 153.084076,72.917717 
	C155.714478,71.021530 157.761490,72.967667 160.286957,73.918457 
	C161.835831,74.693008 162.919922,75.581848 164.547867,76.193642 
	C165.243027,76.613068 165.557434,76.945610 165.894775,77.674057 
z"/>
<path fill="#DE9D72" opacity="1.000000" stroke="none" 
	d="
M138.778198,164.431183 
	C147.114517,166.928818 154.112320,171.573486 160.402512,177.293503 
	C163.096741,179.743546 165.587234,182.412659 168.571487,184.983734 
	C162.624908,187.962982 159.609390,183.361343 156.181625,180.271057 
	C153.974670,178.281418 152.062943,175.947067 149.315018,173.991913 
	C146.204315,170.397430 141.143723,170.043457 138.595673,165.810211 
	C138.515518,165.212463 138.535477,164.968109 138.778198,164.431183 
z"/>
<path fill="#E0A374" opacity="1.000000" stroke="none" 
	d="
M190.453857,286.866913 
	C189.968628,287.034027 189.766541,287.024323 189.261200,287.001953 
	C188.654984,286.754242 188.469131,286.445648 188.388580,285.796814 
	C188.444519,285.343079 188.495193,285.166687 188.676407,284.752075 
	C188.909088,284.366547 189.011261,284.219208 189.372635,283.614746 
	C189.645569,282.784363 189.599533,282.417450 189.534576,281.745056 
	C190.972061,279.140472 191.891159,276.675415 192.212265,273.644623 
	C192.686325,272.482727 193.401093,271.859222 193.870193,270.682648 
	C194.092529,270.142303 194.181854,269.923553 194.408142,269.372772 
	C196.298676,264.837341 196.322998,260.001648 199.273209,256.227051 
	C199.966125,255.340546 200.297424,254.147507 201.900513,253.919571 
	C202.434616,254.542496 202.483505,255.043152 202.276306,255.918213 
	C200.591568,267.259857 196.363037,277.237213 190.453857,286.866913 
z"/>
<path fill="#F19E58" opacity="1.000000" stroke="none" 
	d="
M207.912292,214.524597 
	C207.861832,215.415039 207.850937,215.863647 207.741058,216.634949 
	C205.962555,219.308609 205.944168,222.145798 205.384415,224.815277 
	C204.984924,226.720490 204.843094,228.693954 202.896484,230.284546 
	C200.082001,230.340805 199.852966,228.500626 200.225204,226.885788 
	C201.849274,219.840225 201.499161,212.684479 201.741882,205.556732 
	C201.805496,203.688858 202.423935,201.961624 204.397690,200.556015 
	C205.395844,200.258408 205.982712,200.289612 206.940552,200.705002 
	C209.165695,205.246094 207.457794,209.717468 207.912292,214.524597 
z"/>
<path fill="#AA7B71" opacity="1.000000" stroke="none" 
	d="
M81.995743,76.260345 
	C82.013229,77.415932 81.256210,77.835793 80.255447,78.320526 
	C74.415268,76.103737 68.555519,75.928978 62.581532,76.682747 
	C61.112118,76.868141 58.924213,78.122940 58.510719,75.593399 
	C58.153210,73.406349 60.339672,73.199059 61.936497,72.851540 
	C68.942390,71.326859 75.232292,74.285194 81.995743,76.260345 
z"/>
<path fill="#E9EDF1" opacity="1.000000" stroke="none" 
	d="
M928.612671,176.770935 
	C928.816345,177.477493 928.802673,177.878067 928.723877,178.573425 
	C927.802063,179.921051 927.339722,181.194687 926.477234,182.622498 
	C922.311035,183.664795 920.782654,187.467484 917.891663,189.562607 
	C916.260132,190.744995 914.397644,193.232361 912.462646,191.043488 
	C910.858521,189.228897 912.882812,187.263489 914.461243,186.116913 
	C918.675903,183.055237 922.190735,179.006439 927.523438,177.010620 
	C928.053711,176.830688 928.224487,176.647827 928.612671,176.770935 
z"/>
<path fill="#B89887" opacity="1.000000" stroke="none" 
	d="
M173.258545,33.355988 
	C172.162155,33.820415 171.065781,33.894791 169.569061,33.970863 
	C171.742172,30.944199 169.631042,28.302107 168.291061,25.771580 
	C166.903412,23.150982 165.241547,20.635643 163.400818,18.310869 
	C162.403534,17.051325 161.057770,15.759297 162.505188,14.583214 
	C163.869354,13.474776 165.333176,15.049482 166.193359,16.143785 
	C170.077820,21.085491 172.068665,26.867989 173.258545,33.355988 
z"/>
<path fill="#E7CFB4" opacity="1.000000" stroke="none" 
	d="
M237.792740,79.011734 
	C238.295319,83.087669 233.932648,84.087044 232.989990,87.605087 
	C233.104309,88.135468 233.254883,88.319672 233.322495,88.851944 
	C232.108124,90.423630 231.231445,91.839119 229.930374,93.370033 
	C228.559097,93.889183 227.607864,93.734856 226.594330,92.616302 
	C226.398636,87.018982 228.402954,82.670166 232.737198,79.144997 
	C234.566360,79.089600 234.973236,77.585640 236.340179,76.986084 
	C236.913422,77.534042 237.207626,78.172256 237.792740,79.011734 
z"/>
<path fill="#B89887" opacity="1.000000" stroke="none" 
	d="
M116.379456,163.629425 
	C111.423416,162.083603 106.805115,160.467087 102.186806,158.850555 
	C107.947578,158.314545 113.618362,157.560516 119.622826,159.130508 
	C120.960510,162.311783 118.334732,162.545700 116.379456,163.629425 
z"/>
<path fill="#E7CFB4" opacity="1.000000" stroke="none" 
	d="
M247.104523,77.497284 
	C245.264114,78.257843 244.646698,75.605309 242.391861,76.015213 
	C245.259232,72.110558 249.531464,69.583961 253.896805,67.291496 
	C255.245071,66.583443 257.654724,64.962761 258.586548,67.546844 
	C259.431732,69.890709 256.596924,69.509682 255.379517,70.349518 
	C252.426941,72.386391 247.656250,72.214569 247.104523,77.497284 
z"/>
<path fill="#DE9D72" opacity="1.000000" stroke="none" 
	d="
M191.619705,185.023453 
	C191.738251,189.207596 187.101349,188.019196 185.151154,190.664581 
	C182.085190,193.214462 178.997635,191.026794 175.592987,191.306335 
	C172.351593,190.224533 168.804596,190.122925 168.583908,185.610703 
	C168.774918,185.230621 168.890640,185.112167 168.948547,185.052948 
	C176.408920,188.586716 183.819016,190.251175 191.619705,185.023453 
z"/>
<path fill="#E0A374" opacity="1.000000" stroke="none" 
	d="
M202.778137,230.265305 
	C203.681076,226.463593 204.414017,222.943115 204.981247,219.396133 
	C205.184830,218.123047 205.447495,217.149567 207.276245,216.984955 
	C208.555771,220.770065 207.068848,224.404297 206.731705,228.548584 
	C205.622498,230.432343 206.351044,232.332779 205.373398,234.183426 
	C205.376556,235.143265 205.452393,235.748093 205.515900,236.658249 
	C205.305389,237.122223 205.107254,237.280853 204.533478,237.499969 
	C203.340729,237.451981 202.785110,237.002335 202.370773,235.896194 
	C202.326126,233.866882 201.827988,232.170242 202.778137,230.265305 
z"/>
<path fill="#E7B183" opacity="1.000000" stroke="none" 
	d="
M208.155243,214.678024 
	C205.935577,210.725861 207.488358,206.254898 207.020599,201.454285 
	C206.667313,199.462906 206.629089,197.970779 207.752625,196.284607 
	C207.996643,195.243713 208.002029,194.498154 208.018677,193.379959 
	C208.345459,192.712204 208.718994,192.575287 209.407135,192.773743 
	C210.252701,200.154358 209.004486,207.252502 208.155243,214.678024 
z"/>
<path fill="#F19E58" opacity="1.000000" stroke="none" 
	d="
M202.194061,254.250427 
	C198.353989,258.553253 197.452072,264.243866 195.344360,269.793579 
	C193.438492,270.295380 193.391037,269.053955 193.134079,267.607971 
	C194.496552,261.105286 196.394836,255.196762 199.737457,249.575394 
	C201.259583,249.506332 201.961166,250.255554 202.871674,251.332855 
	C203.199493,251.864929 203.303177,252.093781 203.170425,252.616150 
	C202.925369,253.081360 202.916718,253.253052 202.841812,253.673981 
	C202.654144,254.125290 202.532715,254.327377 202.194061,254.250427 
z"/>
<path fill="#AA7B71" opacity="1.000000" stroke="none" 
	d="
M38.625031,144.052322 
	C39.028599,144.451279 39.027321,144.778976 39.061695,145.350311 
	C34.652710,146.013107 30.923370,148.143799 27.278685,150.459518 
	C26.296988,151.083237 25.149906,152.100952 24.287724,150.841843 
	C23.489832,149.676620 24.672665,148.656235 25.621984,148.023422 
	C29.422417,145.490036 33.617603,144.103958 38.625031,144.052322 
z"/>
<path fill="#B89887" opacity="1.000000" stroke="none" 
	d="
M149.592697,300.118652 
	C149.662018,301.602997 149.337189,303.075684 149.027344,304.859314 
	C145.386337,305.456451 141.916534,304.785187 137.395889,302.930634 
	C142.065399,301.813507 145.631973,300.960266 149.592697,300.118652 
z"/>
<path fill="#DB9872" opacity="1.000000" stroke="none" 
	d="
M116.331406,163.916733 
	C117.319092,162.430969 118.596451,161.161804 119.937805,159.600342 
	C120.444168,159.278732 120.886536,159.249435 121.648117,159.320038 
	C122.328140,159.706299 122.620995,160.049286 122.957275,160.773819 
	C123.401787,164.577927 127.978477,164.835999 128.332794,168.493225 
	C128.190735,168.794296 128.029114,168.968140 127.948280,169.055359 
	C124.118660,167.472839 120.369873,165.803101 116.331406,163.916733 
z"/>
<path fill="#A8ABAF" opacity="1.000000" stroke="none" 
	d="
M926.289429,183.253235 
	C926.324402,181.357941 925.680603,179.521729 928.321167,178.933594 
	C928.742249,182.992508 928.825745,187.116852 928.784424,191.703217 
	C926.526611,191.797440 925.944397,190.446030 926.507568,188.539459 
	C927.004578,186.856552 926.644531,185.255722 926.289429,183.253235 
z"/>
<path fill="#DB9872" opacity="1.000000" stroke="none" 
	d="
M138.683594,163.946716 
	C139.000961,164.138596 138.994980,164.591660 138.990128,164.818161 
	C133.604294,168.201843 129.577972,164.407990 124.965927,162.023346 
	C124.681610,161.411407 124.642685,161.136459 124.795898,160.491943 
	C129.654465,160.570724 134.105927,161.810760 138.683594,163.946716 
z"/>
<path fill="#E9EDF1" opacity="1.000000" stroke="none" 
	d="
M385.608093,235.012955 
	C384.431244,234.894638 383.060181,234.533447 383.624390,233.849915 
	C385.356110,231.752090 387.776794,230.896286 390.534149,231.726181 
	C391.567932,232.037323 393.011963,232.151321 392.742035,233.753632 
	C392.538513,234.961548 391.384247,234.978348 390.401520,234.998413 
	C388.936920,235.028336 387.471466,235.015991 385.608093,235.012955 
z"/>
<path fill="#EABC8E" opacity="1.000000" stroke="none" 
	d="
M174.756317,61.268158 
	C175.009430,61.019287 175.469254,61.000484 175.698914,60.989952 
	C176.406998,61.330364 176.885406,61.681301 177.674988,62.003601 
	C177.688950,63.090111 177.391754,64.205261 177.078430,65.670151 
	C176.685791,68.383369 176.456802,70.795166 174.518555,72.843735 
	C172.979935,72.039734 172.830719,70.718224 172.711990,68.988449 
	C172.713760,67.828995 172.797150,67.066605 172.997375,65.943748 
	C173.192261,65.106064 173.324982,64.636101 173.559387,63.821449 
	C173.838562,62.779617 174.087173,62.111843 174.756317,61.268158 
z"/>
<path fill="#E0A374" opacity="1.000000" stroke="none" 
	d="
M209.766769,192.588715 
	C209.301071,192.965851 208.938354,192.980576 208.302795,193.001312 
	C206.905289,190.167969 205.325516,187.273880 209.371613,184.981903 
	C209.821564,186.037582 209.891342,187.121857 209.883942,188.608170 
	C209.728073,189.167618 209.649368,189.325043 209.657623,189.731750 
	C209.786285,190.729446 209.828033,191.477875 209.766769,192.588715 
z"/>
<path fill="#EABC8E" opacity="1.000000" stroke="none" 
	d="
M105.227890,89.373566 
	C104.478386,88.252884 103.863953,87.534210 103.099648,86.577705 
	C103.584229,86.083473 104.218681,85.827065 105.011993,85.259277 
	C105.941147,85.527451 106.711441,86.107018 107.751060,86.796005 
	C109.869530,87.021278 111.115059,87.881950 111.407913,89.788490 
	C111.514214,90.480560 111.144531,91.134888 110.524307,91.389565 
	C108.392693,92.264816 106.728607,91.451729 105.227890,89.373566 
z"/>
<path fill="#E7B183" opacity="1.000000" stroke="none" 
	d="
M57.894379,141.419525 
	C58.315708,141.094849 58.797745,141.071594 59.642456,141.056213 
	C60.187916,140.905472 60.370705,140.746841 60.919571,140.586578 
	C62.018410,140.747879 62.697781,141.047913 63.686729,141.592621 
	C64.893188,142.533829 65.791382,143.324524 65.188057,144.615585 
	C64.689575,145.682297 63.716320,145.681854 62.452068,145.091858 
	C60.930904,144.355820 59.676308,143.906448 58.201370,143.200485 
	C57.972382,142.536240 57.963734,142.128586 57.894379,141.419525 
z"/>
<path fill="#A8ABAF" opacity="1.000000" stroke="none" 
	d="
M956.928345,220.740356 
	C959.508362,219.986786 961.896667,221.434921 964.739258,221.929642 
	C962.139832,223.247681 959.376221,223.654404 956.928345,220.740356 
z"/>
<path fill="#A8ABAF" opacity="1.000000" stroke="none" 
	d="
M993.318054,213.979813 
	C995.095520,211.708435 997.234253,209.448074 999.700806,207.107819 
	C999.468323,210.767960 996.953857,212.725967 993.318054,213.979813 
z"/>
<path fill="#A8ABAF" opacity="1.000000" stroke="none" 
	d="
M971.258118,222.385223 
	C972.976074,220.930695 975.189880,220.532028 977.795959,220.287415 
	C976.767151,223.558472 974.067627,222.888214 971.258118,222.385223 
z"/>
<path fill="#B89887" opacity="1.000000" stroke="none" 
	d="
M129.669922,259.993774 
	C129.623138,261.304321 129.280930,262.459595 128.901962,263.989075 
	C127.113594,262.913025 125.907684,261.119537 125.257591,258.772400 
	C126.912895,258.463074 128.103577,259.316101 129.669922,259.993774 
z"/>
<path fill="#E7B183" opacity="1.000000" stroke="none" 
	d="
M203.206787,252.667328 
	C202.934006,252.909668 202.841675,252.505630 202.819580,252.299591 
	C201.922119,250.821655 201.945709,249.262909 201.367981,247.498917 
	C201.230942,246.614410 201.266373,246.107162 201.565567,245.260345 
	C202.391739,244.385605 203.124741,244.275833 204.233521,244.718811 
	C205.193436,247.583878 203.970123,249.952148 203.206787,252.667328 
z"/>
<path fill="#A8ABAF" opacity="1.000000" stroke="none" 
	d="
M928.990723,176.741943 
	C928.830017,177.076904 928.354675,177.078934 928.118774,177.046249 
	C928.343506,174.923141 927.607788,172.391205 930.431580,170.957855 
	C931.519348,173.093033 929.551941,174.519882 928.990723,176.741943 
z"/>
<path fill="#E7B183" opacity="1.000000" stroke="none" 
	d="
M210.122437,182.697021 
	C208.345825,181.445679 209.235168,179.531937 209.017639,177.401108 
	C209.365967,176.695282 209.767502,176.562149 210.491058,176.770050 
	C211.060364,178.811432 211.028259,180.638565 210.122437,182.697021 
z"/>
<path fill="#E0A374" opacity="1.000000" stroke="none" 
	d="
M210.830139,176.593781 
	C210.374954,176.972733 209.989685,176.983521 209.315247,176.998245 
	C207.698181,175.975677 207.811737,174.739197 208.771179,173.212646 
	C209.505615,173.263290 209.972839,173.519684 210.687012,173.878265 
	C210.922668,174.728836 210.911362,175.477219 210.830139,176.593781 
z"/>
<path fill="#E7B183" opacity="1.000000" stroke="none" 
	d="
M203.759613,237.320221 
	C204.276031,236.999176 204.520203,236.988953 205.133957,236.971161 
	C206.167450,238.506897 205.792877,240.008514 205.087585,241.746277 
	C204.586960,242.050980 204.319992,242.115646 203.759430,241.889374 
	C202.797485,240.272308 202.779922,238.949707 203.759613,237.320221 
z"/>
<path fill="#E7B183" opacity="1.000000" stroke="none" 
	d="
M205.603699,234.312592 
	C205.191162,232.725800 204.262711,230.813171 206.300385,229.093567 
	C207.008102,230.761749 207.200043,232.532181 205.603699,234.312592 
z"/>
<path fill="#A8ABAF" opacity="1.000000" stroke="none" 
	d="
M944.973389,216.349152 
	C946.396973,216.201614 947.642944,216.745407 948.819641,218.070740 
	C946.846863,219.664322 945.965271,218.033691 944.973389,216.349152 
z"/>
<path fill="#A8ABAF" opacity="1.000000" stroke="none" 
	d="
M934.654419,163.038330 
	C935.076660,164.661255 934.327209,165.951630 932.918091,167.260757 
	C931.853210,165.497650 932.959839,164.243774 934.654419,163.038330 
z"/>
<path fill="#E0A374" opacity="1.000000" stroke="none" 
	d="
M203.579132,241.907715 
	C203.928375,242.004303 204.391861,242.008575 204.622894,241.997452 
	C204.858063,242.742050 204.862198,243.497772 204.706299,244.601105 
	C203.934250,244.974167 203.322266,244.999603 202.401123,245.029938 
	C201.717773,244.706223 201.510910,244.290070 201.505905,243.442123 
	C201.919098,242.396591 202.485138,241.987106 203.579132,241.907715 
z"/>
<path fill="#B89887" opacity="1.000000" stroke="none" 
	d="
M174.740845,39.510094 
	C173.385178,38.363155 172.839096,36.627193 173.093689,34.284027 
	C174.633621,35.361698 174.679047,37.270721 174.740845,39.510094 
z"/>
<path fill="#DE9D72" opacity="1.000000" stroke="none" 
	d="
M194.656357,181.960831 
	C195.120499,182.107224 195.311096,182.411102 195.738159,182.847733 
	C195.833908,185.168457 194.200500,184.962463 192.344940,184.994034 
	C192.771759,184.026474 193.577286,183.072388 194.656357,181.960831 
z"/>
<path fill="#A8ABAF" opacity="1.000000" stroke="none" 
	d="
M930.847656,200.150864 
	C931.968567,200.622925 932.610413,201.434601 932.697754,202.874725 
	C931.315674,202.674622 930.258667,201.990936 930.847656,200.150864 
z"/>
<path fill="#A8ABAF" opacity="1.000000" stroke="none" 
	d="
M928.795898,195.156250 
	C930.137939,195.454590 930.679321,196.330444 930.785339,197.815262 
	C929.342163,197.725159 928.138000,197.156219 928.795898,195.156250 
z"/>
<path fill="#EABC8E" opacity="1.000000" stroke="none" 
	d="
M253.443848,101.132957 
	C253.073303,100.107040 252.689133,98.835648 254.468506,98.065498 
	C255.001526,99.176460 254.928970,100.276108 253.443848,101.132957 
z"/>
<path fill="#A8ABAF" opacity="1.000000" stroke="none" 
	d="
M984.963623,218.703339 
	C985.246399,217.528671 986.174194,217.012665 987.692993,216.982086 
	C987.722168,218.534912 986.699402,218.968430 984.963623,218.703339 
z"/>
<path fill="#B89887" opacity="1.000000" stroke="none" 
	d="
M124.689941,160.014236 
	C124.988029,160.122375 124.996574,160.559616 125.004845,160.778107 
	C124.327873,161.644012 123.536736,161.745819 122.329666,161.199829 
	C121.989906,160.607773 121.989212,160.267563 121.977936,159.673645 
	C122.775513,159.581985 123.583679,159.744034 124.689941,160.014236 
z"/>
<path fill="#A8ABAF" opacity="1.000000" stroke="none" 
	d="
M934.458496,206.917603 
	C935.176575,207.051575 935.781921,207.532333 936.395386,208.307587 
	C935.255127,208.867722 934.527832,208.485397 934.458496,206.917603 
z"/>
<path fill="#A8ABAF" opacity="1.000000" stroke="none" 
	d="
M942.065918,156.317184 
	C942.152832,157.388916 941.359070,157.692154 940.256104,157.961334 
	C940.052856,156.837601 940.685852,156.297394 942.065918,156.317184 
z"/>
<path fill="#A8ABAF" opacity="1.000000" stroke="none" 
	d="
M938.171204,211.106827 
	C938.845154,211.235626 939.463013,211.720627 940.151123,212.505615 
	C939.066284,213.068756 938.399475,212.565918 938.171204,211.106827 
z"/>
<path fill="#E7CFB4" opacity="1.000000" stroke="none" 
	d="
M256.253296,88.837997 
	C255.750397,88.454346 255.458679,87.908875 255.266159,87.038689 
	C256.172882,87.120941 257.010559,87.510994 256.253296,88.837997 
z"/>
<path fill="#A8ABAF" opacity="1.000000" stroke="none" 
	d="
M940.995422,213.440704 
	C941.914001,212.786835 942.464783,213.490540 943.240723,214.290100 
	C942.375671,215.006317 941.634094,214.638565 940.995422,213.440704 
z"/>
<path fill="#E7B183" opacity="1.000000" stroke="none" 
	d="
M201.989258,254.356537 
	C201.976822,253.971359 202.376389,253.943848 202.575989,253.933517 
	C202.706314,254.544891 202.637054,255.166580 202.358154,256.034149 
	C202.099579,255.767242 202.050629,255.254486 201.989258,254.356537 
z"/>
<path fill="#EABC8E" opacity="1.000000" stroke="none" 
	d="
M255.329346,94.965149 
	C255.207581,94.557091 255.342010,93.964363 255.726624,93.188126 
	C255.846375,93.596565 255.715973,94.188522 255.329346,94.965149 
z"/>
<path fill="#E7B183" opacity="1.000000" stroke="none" 
	d="
M209.817566,189.742004 
	C209.399750,189.772263 209.328827,189.507385 209.669281,189.098297 
	C209.806763,189.010208 209.890594,189.502991 209.817566,189.742004 
z"/>
<path fill="#F9F9F9" opacity="1.000000" stroke="none" 
	d="
M566.783203,202.522446 
	C563.398010,213.633606 557.360413,218.696838 548.194336,218.441040 
	C543.057800,218.297684 538.732422,215.876511 535.371155,212.552277 
	C523.734863,201.043991 518.130432,186.977188 519.680237,170.525055 
	C520.176880,165.253113 522.037537,160.082703 526.219116,156.484497 
	C532.387634,151.176605 539.412720,150.752670 546.524841,154.427124 
	C562.200317,162.525787 571.821777,186.863846 566.783203,202.522446 
z"/>
<path fill="#F9F9F9" opacity="1.000000" stroke="none" 
	d="
M733.460815,164.622955 
	C740.036316,173.139496 743.758911,182.650848 743.703064,192.833817 
	C743.653748,201.842926 741.860657,210.860336 731.868225,215.409378 
	C725.680542,218.226288 720.573120,216.251663 715.486328,213.236053 
	C702.721680,205.668777 694.123657,178.603271 699.559082,164.817627 
	C704.679504,151.831024 717.723938,150.830002 727.898987,159.144760 
	C729.814270,160.709915 731.464844,162.598999 733.460815,164.622955 
z"/>
<path fill="#F9F9F9" opacity="1.000000" stroke="none" 
	d="
M961.035767,153.904999 
	C970.941711,154.393936 977.406677,159.889282 982.402771,167.227142 
	C990.019531,178.414246 993.049683,190.678528 988.876526,203.935242 
	C984.662170,217.322800 971.086487,221.612991 960.192566,211.421173 
	C947.452454,199.501984 942.564575,184.012253 946.154114,166.614655 
	C947.386536,160.641449 951.502014,154.343811 961.035767,153.904999 
z"/>
<path fill="#EF704F" opacity="1.000000" stroke="none" 
	d="
M89.194580,110.235016 
	C80.152481,106.824554 75.572319,100.671814 75.983566,91.153305 
	C76.362938,82.372467 83.196053,78.648682 90.829994,82.836197 
	C94.876060,85.055634 99.126190,86.903023 103.643112,88.969254 
	C109.912659,95.034035 110.491692,99.591599 106.411102,106.841873 
	C104.967644,109.406563 102.702301,110.393143 99.997505,110.979256 
	C98.209137,111.366783 96.344597,110.611343 94.322029,111.757332 
	C93.560837,112.013596 93.111847,112.015785 92.326134,112.013283 
	C91.361778,111.111610 90.229713,111.040283 89.194580,110.235016 
z"/>
<path fill="#EC7955" opacity="1.000000" stroke="none" 
	d="
M94.395416,112.021286 
	C94.158470,110.220352 95.413246,110.139427 96.838074,109.976547 
	C106.707664,108.848267 110.680031,100.757027 105.583527,92.270111 
	C105.076752,91.426201 104.579216,90.576736 104.039711,89.375000 
	C104.183563,89.013077 104.365105,89.005997 104.819733,88.985245 
	C105.829880,89.337563 106.546616,89.754890 107.309029,90.056908 
	C108.314529,90.455193 109.654037,91.678314 110.361626,90.379593 
	C111.207314,88.827408 109.170471,88.387627 108.197876,87.188118 
	C106.855103,80.654762 100.871361,79.138184 97.017181,75.499214 
	C95.167786,73.753075 89.814667,74.100136 92.282692,69.322731 
	C94.024216,65.951607 101.076813,64.713020 104.636047,66.670555 
	C120.693146,75.501755 122.988060,87.938545 121.999237,102.182190 
	C121.931229,103.161842 122.068878,104.430336 120.865562,104.693047 
	C113.123299,106.383377 106.564926,111.397446 98.666443,112.561775 
	C97.424355,112.744873 96.078751,112.225647 94.395416,112.021286 
z"/>
<path fill="#EC7955" opacity="1.000000" stroke="none" 
	d="
M89.028778,110.372742 
	C90.113205,110.068283 91.404686,109.773140 91.939255,111.661469 
	C90.852577,111.958916 89.579018,112.215729 89.028778,110.372742 
z"/>
<path fill="#E8624D" opacity="1.000000" stroke="none" 
	d="
M61.703354,144.869141 
	C62.928860,144.669678 64.034355,144.785614 64.339645,144.345932 
	C64.961525,143.450302 63.831135,143.134567 63.064835,142.459488 
	C62.605736,141.535980 61.960018,141.500244 61.086319,141.249939 
	C60.798416,141.136917 60.399948,141.117691 60.202538,141.090897 
	C59.878410,139.055695 58.774479,138.075974 56.796455,138.037262 
	C55.634102,138.014526 54.459339,138.119537 53.311016,137.986740 
	C50.563988,137.669052 47.658863,137.698502 45.490303,135.605927 
	C44.867207,135.004654 44.917419,133.848175 45.737709,133.426392 
	C48.866970,131.817368 51.880764,128.255173 55.597935,130.207672 
	C62.797318,133.989258 70.090530,137.919418 74.144302,145.629333 
	C74.716057,146.716751 75.421982,147.921814 74.734726,148.878494 
	C71.462570,153.433456 67.636993,157.763565 62.989796,160.655014 
	C58.466816,163.469177 52.905033,163.494064 47.769886,161.075851 
	C44.878281,159.714172 42.260906,157.651306 41.207088,154.745743 
	C39.023838,148.726135 41.721584,145.222046 48.267349,145.013809 
	C52.581791,144.876556 56.903015,144.952591 61.703354,144.869141 
z"/>
<path fill="#F38F51" opacity="1.000000" stroke="none" 
	d="
M173.789337,67.762650 
	C174.056152,69.370010 174.080719,70.742371 174.143295,72.522278 
	C172.352921,72.958061 171.725555,74.377815 171.150040,75.707306 
	C170.280334,77.716408 168.682236,78.119797 166.369141,78.005417 
	C165.660614,77.908936 165.402435,77.723106 165.098328,77.235397 
	C164.093567,75.996178 162.781281,75.696007 161.319275,75.053497 
	C158.277344,75.540611 156.615158,72.432861 153.527008,72.896538 
	C153.281448,67.537979 148.903366,63.883492 148.393997,58.476437 
	C147.602539,50.074810 149.945786,42.933640 157.651184,38.022720 
	C164.351852,38.188686 170.239578,39.185711 172.731934,46.717381 
	C172.989624,47.445393 172.997940,47.889496 173.006790,48.666740 
	C172.990860,49.801064 172.991058,50.602291 173.007446,51.703938 
	C173.017227,53.389389 173.019730,54.774448 173.023834,56.575020 
	C172.901855,60.517632 172.183044,64.074196 173.789337,67.762650 
z"/>
<path fill="#F7954F" opacity="1.000000" stroke="none" 
	d="
M193.882034,266.588013 
	C194.169052,267.873871 194.341766,268.747711 194.788757,269.825470 
	C195.063019,270.029358 195.041855,270.520813 195.032104,270.766571 
	C194.456451,271.519470 193.931076,272.066986 193.229996,272.840210 
	C193.398560,276.548706 192.755600,279.726868 190.071106,282.632935 
	C190.120850,283.153107 190.230469,283.319550 190.171875,283.733185 
	C190.003662,283.980347 189.999634,284.000244 189.990417,284.004639 
	C189.816284,284.172821 189.651367,284.336578 189.244614,284.751465 
	C189.002777,285.002594 189.000000,285.000000 189.001862,285.001831 
	C187.988083,286.084778 186.857040,287.010284 185.247772,287.817993 
	C185.009399,288.023529 185.007141,288.510651 185.000458,288.754089 
	C182.938644,290.624146 180.621323,290.867767 178.517853,289.461029 
	C176.139145,287.870209 177.019089,285.325623 177.347595,283.061737 
	C177.514847,281.909180 177.960068,280.824158 178.707352,279.362762 
	C178.979797,278.527527 178.982788,278.091064 178.993805,277.327332 
	C180.719757,273.331299 181.716202,269.569733 180.239960,265.261017 
	C180.001831,265.001221 180.000000,265.000000 179.999390,264.998779 
	C178.280151,262.688019 175.796799,262.414886 172.854263,262.326569 
	C169.555145,260.108795 168.590118,257.113312 168.810791,253.307739 
	C169.165695,251.602905 168.435913,249.930908 170.613495,249.050354 
	C171.523254,248.463974 172.071655,247.938202 172.783966,247.173218 
	C172.988464,244.936874 172.999207,242.909454 173.019730,240.447556 
	C174.894958,236.919083 175.173233,233.749832 173.251465,230.240143 
	C173.004288,225.985199 172.986816,221.977264 172.968506,217.509323 
	C170.765503,209.144363 169.077225,201.064392 164.973633,193.810486 
	C164.253128,192.536865 164.245239,191.253601 165.383316,190.169342 
	C166.606049,189.004425 168.026627,188.985962 169.560684,189.466171 
	C171.159882,189.966797 172.412628,192.160385 174.735825,190.259048 
	C178.141281,189.499680 181.087616,190.805634 184.570023,190.975159 
	C184.986084,190.972061 184.996262,190.992844 184.998444,191.001617 
	C191.701874,198.409836 191.793503,207.159546 190.079163,216.237381 
	C189.529800,219.146347 189.812195,221.737213 191.428482,224.336090 
	C193.975464,228.431488 194.299500,233.184265 194.362228,237.821426 
	C194.458755,244.956680 194.906754,252.116516 193.685196,259.229584 
	C193.293640,261.509491 193.273224,263.866241 193.882034,266.588013 
z"/>
<path fill="#EE8D53" opacity="1.000000" stroke="none" 
	d="
M168.624542,253.026855 
	C170.304977,255.723450 170.175873,259.135223 172.846313,261.688660 
	C173.642685,262.676575 173.758179,263.459381 173.244354,264.672180 
	C172.134659,267.105896 169.652161,267.987244 169.019424,270.617798 
	C161.966415,270.706360 155.400558,274.204987 148.208008,273.122589 
	C143.641312,272.435364 139.565842,271.283081 136.348511,267.852448 
	C135.397369,266.838226 134.596313,265.762024 135.465988,264.342560 
	C136.303894,262.974945 137.564621,263.400146 138.930328,263.373566 
	C146.351456,263.229034 154.108124,264.076904 160.042709,257.490906 
	C163.701813,257.475372 166.005600,255.309433 168.624542,253.026855 
z"/>
<path fill="#F09755" opacity="1.000000" stroke="none" 
	d="
M178.638763,279.024048 
	C178.974121,280.284576 179.347549,281.749908 178.904617,282.901123 
	C176.815414,288.331055 179.173798,289.712616 184.556580,288.997711 
	C180.166351,296.562744 173.697632,301.584656 164.389084,301.927155 
	C162.475449,301.997559 159.967148,301.715851 159.342911,299.681610 
	C158.774292,297.828583 161.174240,297.013550 162.487122,296.378815 
	C168.172363,293.630096 171.178940,288.433960 174.649048,283.654327 
	C175.799606,282.069580 176.491089,280.138153 178.638763,279.024048 
z"/>
<path fill="#F09755" opacity="1.000000" stroke="none" 
	d="
M179.999054,265.445190 
	C182.079758,265.217285 182.108734,266.763184 181.976440,268.249817 
	C181.711349,271.228790 181.655334,274.283508 179.377808,276.923859 
	C179.044250,273.270569 180.595947,269.676147 179.999054,265.445190 
z"/>
<path fill="#F09755" opacity="1.000000" stroke="none" 
	d="
M173.374298,264.977814 
	C173.008545,264.265808 173.004501,263.510742 173.000885,262.378479 
	C176.104385,260.364746 178.378677,261.229584 179.961365,264.646210 
	C177.916153,264.482330 175.837006,263.618408 173.374298,264.977814 
z"/>
<path fill="#F09755" opacity="1.000000" stroke="none" 
	d="
M185.356781,288.015259 
	C185.724518,286.589996 186.698410,285.447418 188.673279,285.031189 
	C188.998413,285.445068 188.993088,285.886475 188.972870,286.658569 
	C187.873367,287.328491 186.788773,287.667755 185.356781,288.015259 
z"/>
<path fill="#F89B52" opacity="1.000000" stroke="none" 
	d="
M194.274963,266.751831 
	C189.906876,264.773468 191.955246,260.976318 192.308914,258.168030 
	C193.563934,248.202240 193.229691,238.335632 191.912704,228.444794 
	C191.869308,228.118988 191.848740,227.715775 191.652634,227.495453 
	C185.629517,220.729614 189.247375,213.157532 189.891052,205.866196 
	C190.138367,203.064758 189.832626,200.536789 187.879639,198.437256 
	C186.117661,196.543076 184.825195,194.497711 185.000885,191.399734 
	C190.194855,191.457733 195.414139,191.728149 200.568481,192.457474 
	C202.167389,192.683731 204.095215,193.422073 204.971619,195.690933 
	C206.120026,197.336029 206.280624,198.736969 205.312164,200.616058 
	C201.793854,203.860367 203.024155,207.721970 203.084641,211.168686 
	C203.179047,216.547867 202.687149,221.812241 201.456482,227.020538 
	C201.176010,228.207443 200.791595,229.271194 202.651031,229.932434 
	C203.178909,231.524033 203.344254,233.053513 203.264252,234.796692 
	C201.042984,237.219864 202.072479,239.835175 202.025238,242.656113 
	C202.023010,243.456985 202.029282,243.908005 202.063751,244.696915 
	C202.080276,245.474243 202.068588,245.913666 202.067963,246.683044 
	C201.975342,247.883224 202.017502,248.785675 201.265533,249.787384 
	C197.727798,250.473236 199.266006,253.431564 198.514450,255.149902 
	C196.913010,258.811523 195.841980,262.705139 194.274963,266.751831 
z"/>
<path fill="#E0A374" opacity="1.000000" stroke="none" 
	d="
M205.381378,200.984253 
	C205.045364,199.612686 205.038544,198.242020 205.034332,196.462051 
	C205.775314,196.034805 206.513657,196.016861 207.621643,195.994095 
	C207.853012,197.488754 207.714752,198.988220 207.303253,200.739166 
	C206.590195,200.988800 206.150375,200.986954 205.381378,200.984253 
z"/>
<path fill="#F09755" opacity="1.000000" stroke="none" 
	d="
M172.988724,46.598839 
	C172.658432,46.928909 172.118515,46.947845 172.044098,46.770943 
	C169.505707,40.737156 163.888138,39.822208 158.239319,38.272438 
	C167.728149,34.428028 171.676361,36.588924 172.988724,46.598839 
z"/>
<path fill="#F09755" opacity="1.000000" stroke="none" 
	d="
M174.043518,67.631973 
	C171.582169,67.486656 171.082794,65.975624 171.586197,63.689438 
	C172.031616,61.666542 172.172928,59.576687 172.736969,57.253464 
	C174.719727,57.782768 172.515976,60.081863 174.747498,60.893478 
	C174.999023,61.760017 174.988617,62.500748 174.974091,63.612175 
	C174.737823,64.195435 174.529648,64.429306 174.211578,64.877838 
	C174.070312,65.802887 174.062881,66.534592 174.043518,67.631973 
z"/>
<path fill="#F09755" opacity="1.000000" stroke="none" 
	d="
M173.261810,51.818794 
	C171.948715,51.298222 171.802597,50.413902 172.755402,49.182686 
	C174.058716,49.709267 174.185028,50.594845 173.261810,51.818794 
z"/>
<path fill="#F5B15C" opacity="1.000000" stroke="none" 
	d="
M232.655106,89.127434 
	C232.820068,88.837517 232.883255,88.394295 232.918503,88.172775 
	C235.970520,87.634254 237.361557,85.220047 238.864380,83.124260 
	C240.188110,81.278206 241.420593,79.515381 243.998306,80.171425 
	C247.149307,80.973373 250.839935,81.324005 251.843338,85.194305 
	C253.028809,89.766930 254.628250,94.488686 250.339279,98.609642 
	C249.506989,99.409309 249.456284,101.022415 249.060760,102.638901 
	C244.632309,106.574265 240.242310,110.268524 233.452911,108.984985 
	C232.407898,108.401993 231.746033,107.918694 230.954056,107.645912 
	C225.214874,105.669090 224.355209,104.447426 224.310486,97.626999 
	C224.899750,96.603836 225.563217,96.309364 226.666687,96.152740 
	C228.318405,96.277794 229.571945,96.294746 230.404419,94.561310 
	C231.864426,92.919098 231.459244,90.885490 232.655106,89.127434 
z"/>
<path fill="#F0AB63" opacity="1.000000" stroke="none" 
	d="
M225.260284,96.661011 
	C225.500183,101.206909 225.079224,106.066017 231.467529,106.436935 
	C231.980515,106.466713 232.429001,107.607727 232.958527,108.603149 
	C229.901077,109.279106 226.718124,108.443024 223.663055,109.646767 
	C221.714920,110.414375 220.466431,109.263077 219.523041,107.815681 
	C214.514297,100.131012 217.207001,81.425453 223.771835,74.508949 
	C226.318359,71.825981 228.786972,72.542168 231.353058,73.154747 
	C234.146423,73.821571 232.622437,76.459435 233.087982,78.650520 
	C230.322922,82.757767 228.425293,86.877113 227.067764,91.652451 
	C226.356018,93.428322 226.746872,95.206810 225.260284,96.661011 
z"/>
<path fill="#F09755" opacity="1.000000" stroke="none" 
	d="
M187.107590,180.262207 
	C183.046555,181.784317 179.461472,183.388016 175.631180,180.248627 
	C171.425674,176.801727 171.166183,172.796249 173.072037,168.273941 
	C175.030640,163.626450 179.193695,163.682526 183.211121,164.080734 
	C190.770172,164.830063 192.388763,174.768173 187.107590,180.262207 
z"/>
<path fill="#EE8D53" opacity="1.000000" stroke="none" 
	d="
M174.644958,189.963135 
	C174.289734,193.139664 172.693573,194.064163 170.344849,191.503235 
	C168.980515,190.015640 167.610825,189.444366 166.125259,190.705948 
	C164.048752,192.469406 166.311661,193.495117 167.147110,194.702805 
	C169.582504,198.223251 173.791702,213.512283 173.018158,216.672195 
	C168.339035,216.594101 168.310898,212.420242 167.055450,209.426132 
	C165.834106,206.513351 165.154633,203.386734 161.489655,201.942032 
	C161.069656,194.185349 155.072495,190.058060 150.818558,184.960175 
	C149.821396,183.765167 148.434982,182.785324 147.267731,181.197327 
	C144.705841,177.954849 144.670288,175.275009 148.617981,173.084473 
	C152.847260,173.345566 154.371552,176.801788 156.821136,178.963531 
	C160.111679,181.867477 162.738693,185.791534 168.374573,185.160736 
	C169.107117,188.563278 172.378799,188.438446 174.644958,189.963135 
z"/>
<path fill="#EE8D53" opacity="1.000000" stroke="none" 
	d="
M173.011810,230.447998 
	C176.926941,232.811600 177.074478,234.822586 173.387970,239.942169 
	C173.020294,236.976334 173.011078,233.939590 173.011810,230.447998 
z"/>
<path fill="#EE8D53" opacity="1.000000" stroke="none" 
	d="
M172.659668,247.014221 
	C172.930267,247.895248 172.696777,248.696823 171.294830,248.947815 
	C171.065521,248.085007 171.314575,247.295914 172.659668,247.014221 
z"/>
<path fill="#EC7955" opacity="1.000000" stroke="none" 
	d="
M148.849503,172.694504 
	C147.111145,175.088562 145.572632,177.271698 146.989670,180.632416 
	C143.433655,177.467697 138.308716,175.768112 135.586334,171.278091 
	C133.998734,168.659683 131.421860,169.012802 128.581696,168.853607 
	C127.222725,165.476624 122.022568,165.845657 121.999435,161.322571 
	C122.746056,160.962631 123.501511,160.977295 124.635040,160.994293 
	C129.265732,162.725662 133.055969,165.963943 138.557159,165.029785 
	C140.947327,169.179886 146.638947,168.380692 148.849503,172.694504 
z"/>
<path fill="#F09755" opacity="1.000000" stroke="none" 
	d="
M161.154907,75.316765 
	C163.017822,73.388260 163.946487,74.928925 164.951630,76.690720 
	C163.579224,77.042587 162.199234,76.982216 161.154907,75.316765 
z"/>
<path fill="#F19E58" opacity="1.000000" stroke="none" 
	d="
M193.360168,272.999512 
	C193.067917,272.118500 193.292679,271.316650 194.695541,271.050201 
	C194.945862,271.915375 194.699219,272.699860 193.360168,272.999512 
z"/>
<path fill="#F09755" opacity="1.000000" stroke="none" 
	d="
M190.173798,283.897522 
	C190.003662,283.980347 190.000580,283.483582 190.005905,283.235107 
	C190.122131,283.262665 190.233032,283.538696 190.173798,283.897522 
z"/>
<path fill="#F09755" opacity="1.000000" stroke="none" 
	d="
M189.220947,284.897400 
	C189.096191,284.680511 189.277679,284.419739 189.764221,284.114685 
	C189.894012,284.334808 189.713318,284.595856 189.220947,284.897400 
z"/>
<path fill="#EABC8E" opacity="1.000000" stroke="none" 
	d="
M225.399475,96.937027 
	C224.905304,95.220573 225.475372,93.746239 226.738678,92.210449 
	C227.542633,92.863647 228.356766,92.973656 229.559570,92.894676 
	C230.265579,93.167015 230.489716,93.557304 230.519257,94.376755 
	C230.095261,95.616081 229.592804,96.391708 228.323975,96.877075 
	C227.240921,96.952263 226.503891,96.956047 225.399475,96.937027 
z"/>
<path fill="#E7B183" opacity="1.000000" stroke="none" 
	d="
M230.210297,95.125046 
	C229.964844,94.449196 229.959763,93.999199 229.917480,93.211502 
	C229.951904,91.180283 230.197556,89.588890 232.486603,88.919266 
	C232.875610,90.853699 233.617508,93.010078 231.316284,94.792419 
	C230.811432,95.099434 230.631042,95.225166 230.210297,95.125046 
z"/>
<path fill="#F19E58" opacity="1.000000" stroke="none" 
	d="
M202.266998,242.901611 
	C199.938293,240.290710 199.524719,237.639862 202.670593,235.061859 
	C203.190994,235.566132 203.363052,236.121872 203.783478,236.843506 
	C204.010284,238.396637 203.988693,239.783890 203.947754,241.587708 
	C203.457993,242.268600 202.987610,242.532913 202.266998,242.901611 
z"/>
<path fill="#E0A374" opacity="1.000000" stroke="none" 
	d="
M201.053452,250.313400 
	C201.185349,249.137451 201.353668,248.267563 201.800491,247.205353 
	C203.490326,248.224625 202.862686,249.834930 202.858505,251.702469 
	C201.965393,251.906738 201.266068,251.566132 201.053452,250.313400 
z"/>
<path fill="#DE9D72" opacity="1.000000" stroke="none" 
	d="
M174.287140,64.945648 
	C174.117096,64.725853 174.271698,64.443718 174.755768,64.103836 
	C174.910385,64.317535 174.752563,64.596619 174.287140,64.945648 
z"/>
<path fill="#CB7262" opacity="1.000000" stroke="none" 
	d="
M60.993210,141.368439 
	C61.408428,141.297638 62.018436,141.458344 62.743298,141.928726 
	C62.301434,142.025589 61.744720,141.812775 60.993210,141.368439 
z"/>
<path fill="#EABC8E" opacity="1.000000" stroke="none" 
	d="
M113.486572,94.468613 
	C113.516388,94.453720 113.456757,94.483513 113.486572,94.468613 
z"/>
<path fill="#F0AB63" opacity="1.000000" stroke="none" 
	d="
M229.713638,95.042938 
	C230.139832,94.917709 230.309723,94.936234 230.735718,94.964226 
	C230.781235,96.515022 230.564835,98.050133 228.163132,97.199768 
	C228.471069,96.361206 228.964203,95.773949 229.713638,95.042938 
z"/>
</svg>