<?xml version="1.0" standalone="no"?>
<!DOCTYPE svg PUBLIC "-//W3C//DTD SVG 20010904//EN"
 "http://www.w3.org/TR/2001/REC-SVG-20010904/DTD/svg10.dtd">
<svg version="1.0" xmlns="http://www.w3.org/2000/svg"
 width="1024.000000pt" height="323.000000pt" viewBox="0 0 1024.000000 323.000000"
 preserveAspectRatio="xMidYMid meet">

<g transform="translate(0.000000,323.000000) scale(0.100000,-0.100000)"
fill="#000000" stroke="none">
<path d="M608 2502 c-16 -2 -28 -8 -28 -13 0 -6 22 -7 58 -3 32 3 74 1 95 -4
20 -6 37 -7 37 -2 0 15 -106 30 -162 22z"/>
<path d="M785 2470 c3 -5 14 -10 23 -10 15 0 15 2 2 10 -20 13 -33 13 -25 0z"/>
<path d="M746 2391 c-4 -7 -5 -15 -2 -18 9 -9 19 4 14 18 -4 11 -6 11 -12 0z"/>
<path d="M730 2349 c0 -5 5 -7 10 -4 6 3 10 8 10 11 0 2 -4 4 -10 4 -5 0 -10
-5 -10 -11z"/>
<path d="M5580 2049 c0 -11 9 -34 20 -49 11 -16 27 -44 35 -63 15 -37 28 -234
15 -242 -4 -2 -34 10 -66 28 -56 30 -65 32 -165 32 -60 0 -116 -5 -130 -12
-13 -6 -43 -18 -66 -27 -46 -17 -64 -31 -129 -99 -38 -41 -84 -165 -84 -231 0
-73 59 -194 124 -253 117 -105 253 -136 413 -92 76 21 166 22 246 3 l27 -6 0
516 0 516 -120 0 c-115 0 -120 -1 -120 -21z m-132 -349 c43 -21 113 -85 148
-135 19 -28 34 -65 63 -156 13 -43 15 -172 2 -197 -5 -9 -15 -32 -21 -49 -14
-37 -82 -103 -108 -104 -9 0 -28 -2 -42 -4 -68 -9 -165 53 -217 140 -94 156
-117 310 -62 420 47 96 143 130 237 85z"/>
<path d="M3884 2020 c-71 -36 -85 -107 -33 -159 40 -40 104 -44 137 -8 30 32
48 85 33 100 -6 6 -11 19 -11 29 0 35 143 20 245 -27 79 -36 141 -119 133
-177 -3 -22 -7 -23 -95 -26 -87 -3 -93 -4 -93 -24 0 -11 15 -44 33 -72 l32
-51 0 -210 c0 -227 3 -213 -60 -308 -27 -43 -10 -48 151 -45 l149 3 -3 25 c-1
13 -11 33 -20 45 -40 45 -46 76 -50 258 -5 218 -1 242 41 267 37 23 65 25 99
8 69 -37 111 -91 127 -166 14 -65 14 -192 0 -252 -11 -52 -44 -125 -59 -135
-5 -3 -10 -17 -10 -31 l0 -24 155 0 c174 0 174 0 131 69 -38 59 -48 106 -56
246 -8 138 -13 171 -36 222 -19 42 -62 93 -79 93 -7 0 -15 6 -18 14 -5 14
-104 36 -142 31 -47 -5 -96 -18 -101 -26 -3 -5 -16 -9 -30 -9 -23 0 -24 3 -24
65 0 75 -21 124 -78 180 -72 71 -161 101 -330 111 -86 5 -102 3 -138 -16z"/>
<path d="M468 1946 c-14 -10 -15 -15 -5 -25 9 -10 7 -12 -12 -9 -27 3 -47 -21
-38 -46 5 -12 19 -16 54 -17 26 0 63 -1 82 -1 19 -1 37 4 39 10 2 7 16 13 30
13 24 2 24 2 5 6 -26 5 -31 23 -7 23 11 0 3 11 -21 30 -41 33 -96 40 -127 16z
m85 -93 c-7 -2 -19 -2 -25 0 -7 3 -2 5 12 5 14 0 19 -2 13 -5z"/>
<path d="M607 1929 c7 -7 15 -10 18 -7 3 3 -2 9 -12 12 -14 6 -15 5 -6 -5z"/>
<path d="M640 1907 c0 -19 34 -57 53 -58 6 0 3 -5 -8 -10 -17 -8 -16 -9 8 -6
21 3 27 0 27 -14 0 -24 21 -69 32 -69 13 0 10 13 -9 40 -10 14 -17 26 -15 28
8 9 -2 24 -23 34 -13 6 -22 14 -20 18 2 4 -7 18 -20 30 -21 20 -25 21 -25 7z"/>
<path d="M595 1830 c7 -11 45 -20 45 -10 0 4 -11 10 -25 12 -13 3 -22 2 -20
-2z"/>
<path d="M408 1802 c-25 -5 -37 -111 -14 -127 9 -7 16 -15 16 -19 0 -3 14 -19
32 -35 28 -24 41 -29 95 -30 63 -1 68 2 64 37 -1 6 3 12 9 12 6 0 9 -4 5 -9
-9 -15 9 -20 25 -8 20 16 24 38 5 31 -22 -9 -18 9 4 23 21 13 27 73 8 73 -5 0
-17 9 -27 20 -9 10 -30 24 -45 30 -26 10 -136 11 -177 2z"/>
<path d="M292 1776 c-18 -7 -40 -20 -49 -29 -16 -15 -16 -17 -1 -17 9 0 18 4
20 9 2 4 23 18 48 29 48 22 36 27 -18 8z"/>
<path d="M6300 1755 c-108 -22 -143 -35 -197 -76 -158 -119 -191 -339 -74
-495 44 -59 142 -128 208 -145 61 -16 196 -17 248 -1 63 18 145 77 182 129
l34 48 -36 3 c-51 5 -58 0 -74 -44 -21 -59 -76 -103 -146 -118 -69 -14 -207
86 -252 183 -9 20 -20 38 -23 41 -19 14 -42 176 -35 244 7 70 45 132 101 166
31 20 45 22 100 17 73 -7 103 -24 174 -97 42 -43 48 -46 95 -44 106 3 99 0 78
36 -52 91 -147 145 -288 163 -16 2 -59 -2 -95 -10z"/>
<path d="M7125 1752 c-22 -2 -44 -8 -49 -13 -6 -5 -16 -9 -24 -9 -30 0 -103
-42 -145 -85 -77 -77 -109 -172 -100 -300 18 -257 334 -405 583 -274 66 35 99
64 138 121 36 53 43 81 49 185 5 89 -10 150 -52 214 -40 61 -148 139 -193 139
-10 0 -22 4 -27 9 -11 11 -116 18 -180 13z m102 -74 c54 -31 115 -97 142 -154
25 -50 29 -61 50 -125 22 -69 11 -165 -26 -229 -8 -14 -17 -32 -19 -41 -7 -22
-87 -59 -127 -59 -64 0 -171 79 -205 150 -9 19 -19 37 -22 40 -13 11 -42 119
-47 180 -9 100 11 174 58 221 37 37 43 39 98 39 43 0 70 -6 98 -22z"/>
<path d="M9610 1752 c-19 -1 -44 -7 -55 -12 -11 -4 -31 -11 -45 -14 -39 -8
-133 -73 -158 -108 -58 -82 -73 -128 -74 -228 0 -53 4 -105 10 -115 6 -11 17
-36 25 -55 51 -116 222 -209 363 -197 78 6 129 19 187 47 47 22 137 102 137
121 0 5 10 23 22 40 20 26 23 46 26 139 4 100 2 112 -24 169 -39 88 -159 191
-222 191 -10 0 -22 4 -27 9 -11 10 -108 18 -165 13z m74 -67 c74 -31 169 -146
190 -230 4 -17 10 -39 13 -50 15 -58 14 -136 -1 -189 -49 -169 -210 -194 -332
-53 -41 47 -84 127 -84 155 0 10 -5 23 -12 30 -7 7 -12 51 -12 119 -1 126 13
168 72 208 43 29 110 33 166 10z"/>
<path d="M2560 1731 c0 -10 14 -35 30 -56 17 -21 34 -50 38 -64 4 -14 7 -116
7 -227 l0 -201 -37 -60 c-21 -34 -38 -66 -38 -72 0 -12 301 -17 313 -5 3 3
-12 40 -34 82 l-39 77 0 201 c0 186 1 202 20 222 32 34 86 39 137 12 42 -22
54 -36 93 -105 17 -31 20 -54 20 -175 0 -149 -13 -207 -59 -266 -41 -52 -36
-54 139 -54 107 0 160 4 160 11 0 12 -20 52 -30 59 -3 3 -14 23 -24 44 -14 30
-21 78 -27 190 -4 83 -12 162 -17 176 -27 73 -26 76 33 110 48 28 58 30 90 21
53 -14 100 -54 124 -104 18 -38 21 -61 21 -194 0 -159 -8 -199 -47 -246 -12
-16 -23 -37 -23 -48 0 -18 9 -19 153 -19 85 0 156 3 160 6 7 7 -15 55 -36 76
-23 23 -36 90 -42 213 -7 157 -13 191 -41 246 -47 90 -112 129 -216 130 -77 1
-107 -6 -180 -44 -53 -27 -59 -28 -74 -13 -62 63 -216 78 -291 29 -29 -20 -43
-9 -43 33 l0 34 -120 0 c-110 0 -120 -1 -120 -19z"/>
<path d="M3810 1726 c0 -14 4 -28 10 -31 12 -7 34 -58 49 -111 15 -55 14 -335
-1 -388 -7 -22 -22 -60 -35 -83 -40 -73 -40 -73 111 -73 74 0 137 4 140 8 3 4
-1 19 -9 33 -57 101 -65 158 -65 442 l0 227 -100 0 c-99 0 -100 0 -100 -24z"/>
<path d="M7690 1729 c0 -11 8 -33 18 -47 28 -42 39 -73 51 -136 14 -74 14
-256 0 -316 -12 -54 -49 -140 -61 -140 -4 0 -8 -11 -8 -25 l0 -25 155 0 c145
0 155 1 155 19 0 10 -7 24 -15 31 -16 13 -34 51 -53 111 -7 21 -12 107 -12
216 l0 181 35 31 c20 17 47 31 61 31 59 0 137 -65 165 -137 17 -45 23 -226 9
-296 -6 -34 -25 -83 -41 -108 -50 -79 -51 -79 126 -79 l155 0 0 24 c0 13 -7
30 -16 37 -36 30 -61 125 -63 242 -3 210 -40 295 -149 345 -48 22 -64 24 -133
19 -47 -3 -87 -11 -101 -21 -37 -26 -48 -20 -48 24 l0 40 -115 0 c-110 0 -115
-1 -115 -21z"/>
<path d="M8410 1729 c0 -12 12 -33 28 -48 37 -36 72 -87 72 -105 0 -15 5 -27
49 -128 12 -26 21 -54 21 -62 0 -8 5 -18 10 -21 6 -3 10 -15 10 -26 0 -10 5
-19 10 -19 6 0 10 -11 10 -24 0 -14 5 -28 10 -31 6 -3 10 -13 10 -21 0 -8 9
-36 21 -62 44 -101 49 -113 49 -127 0 -12 17 -15 84 -15 92 0 97 3 115 65 7
22 17 50 22 63 5 12 13 32 18 45 24 57 127 323 135 346 22 67 39 93 75 118 26
18 40 36 41 51 0 21 -3 22 -86 22 l-86 0 5 -32 c4 -18 9 -47 12 -64 5 -22 -5
-62 -40 -155 -25 -68 -55 -143 -65 -166 -11 -24 -20 -47 -20 -53 0 -6 -8 -29
-19 -53 -10 -23 -23 -55 -30 -71 -9 -23 -14 -26 -26 -16 -8 7 -21 34 -29 61
-14 46 -37 104 -57 141 -5 10 -9 22 -9 28 0 6 -9 32 -21 58 -70 158 -80 206
-54 252 8 14 14 35 15 48 0 22 -1 22 -140 22 -136 0 -140 -1 -140 -21z"/>
<path d="M685 1700 c3 -5 8 -10 11 -10 2 0 4 5 4 10 0 6 -5 10 -11 10 -5 0 -7
-4 -4 -10z"/>
</g>
</svg>
