<?xml version="1.0" standalone="no"?>
<!DOCTYPE svg PUBLIC "-//W3C//DTD SVG 20010904//EN"
 "http://www.w3.org/TR/2001/REC-SVG-20010904/DTD/svg10.dtd">
<svg version="1.0" xmlns="http://www.w3.org/2000/svg"
 width="1080.000000pt" height="1080.000000pt" viewBox="0 0 1080.000000 1080.000000"
 preserveAspectRatio="xMidYMid meet">

<g transform="translate(0.000000,1080.000000) scale(0.100000,-0.100000)"
fill="#000000" stroke="none">
<path d="M3349 6713 c-44 -3 -63 -10 -86 -31 -79 -72 -107 -145 -60 -154 13
-3 54 0 91 5 50 8 73 8 87 -1 10 -7 50 -12 89 -12 38 0 70 -3 70 -8 0 -4 18
-6 40 -4 26 3 40 9 40 18 0 8 9 22 20 31 24 21 10 43 -26 43 -13 0 -24 6 -25
13 -1 6 -2 23 -2 37 -2 18 -9 26 -24 28 -14 2 -20 8 -16 18 4 11 -5 14 -40 14
-24 0 -57 2 -73 3 -16 2 -54 2 -85 0z"/>
<path d="M3616 6644 c-3 -9 -4 -20 0 -25 10 -16 22 -9 26 16 6 28 -16 36 -26
9z"/>
<path d="M3702 6510 c0 -14 2 -19 5 -12 2 6 2 18 0 25 -3 6 -5 1 -5 -13z"/>
<path d="M3249 6395 c-3 -2 -21 -6 -40 -8 -45 -5 -59 -13 -59 -36 0 -9 -6 -23
-12 -29 -8 -8 -13 -45 -13 -100 0 -91 3 -98 71 -166 85 -84 237 -129 321 -94
15 6 35 10 44 9 21 -2 33 27 18 46 -7 7 -9 16 -5 20 3 3 6 1 6 -5 0 -7 11 -12
25 -12 16 0 25 6 25 15 0 10 10 15 30 15 29 0 40 13 21 24 -5 4 -12 39 -16 80
-6 65 -5 76 12 93 11 11 27 22 36 26 8 3 21 15 27 27 10 19 9 20 -17 14 -15
-4 -35 -13 -44 -20 -18 -16 -65 -19 -73 -5 -4 5 6 14 21 19 28 10 28 10 -20
26 -10 3 -15 10 -12 16 10 16 -23 24 -40 10 -15 -12 -37 -3 -56 24 -7 8 -242
20 -250 11z"/>
<path d="M2806 6275 c-3 -8 -1 -15 4 -15 6 0 10 7 10 15 0 8 -2 15 -4 15 -2 0
-6 -7 -10 -15z"/>
</g>
</svg>
